<svg width="15" height="15" viewBox="0 0 15 15" fill="none" xmlns="http://www.w3.org/2000/svg">
<path d="M6.03912 8.07039C5.64859 7.67986 5.64859 7.0467 6.03912 6.65617L12.4031 0.292213C12.7936 -0.0983109 13.4268 -0.0983109 13.8173 0.292213C14.2078 0.682738 14.2078 1.3159 13.8173 1.70643L8.16044 7.36328L13.8173 13.0201C14.2078 13.4107 14.2078 14.0438 13.8173 14.4343C13.4268 14.8249 12.7936 14.8249 12.4031 14.4343L6.03912 8.07039ZM7.86426 7.36328V8.36328H6.74622V7.36328V6.36328H7.86426V7.36328Z" fill="#323232"/>
<path d="M8.07123 6.65617C8.46176 7.0467 8.46176 7.67986 8.07123 8.07039L1.70727 14.4343C1.31675 14.8249 0.683584 14.8249 0.29306 14.4343C-0.0974646 14.0438 -0.0974646 13.4107 0.29306 13.0201L5.94991 7.36328L0.29306 1.70643C-0.0974646 1.3159 -0.0974646 0.682738 0.29306 0.292213C0.683584 -0.0983109 1.31675 -0.0983109 1.70727 0.292213L8.07123 6.65617ZM6.24609 7.36328V6.36328H7.36413V7.36328V8.36328H6.24609V7.36328Z" fill="#323232"/>
</svg>
