<svg width="160" height="200" viewBox="0 0 160 200" fill="none" xmlns="http://www.w3.org/2000/svg">
<path d="M130 70V50C130 36.7392 124.732 24.0215 115.355 14.6447C105.979 5.26784 93.2608 0 80 0C66.7392 0 54.0215 5.26784 44.6447 14.6447C35.2678 24.0215 30 36.7392 30 50V70C22.0435 70 14.4129 73.1607 8.7868 78.7868C3.16071 84.4129 0 92.0435 0 100V170C0 177.957 3.16071 185.587 8.7868 191.213C14.4129 196.839 22.0435 200 30 200H130C137.956 200 145.587 196.839 151.213 191.213C156.839 185.587 160 177.957 160 170V100C160 92.0435 156.839 84.4129 151.213 78.7868C145.587 73.1607 137.956 70 130 70ZM50 50C50 42.0435 53.1607 34.4129 58.7868 28.7868C64.4129 23.1607 72.0435 20 80 20C87.9565 20 95.5871 23.1607 101.213 28.7868C106.839 34.4129 110 42.0435 110 50V70H50V50ZM140 170C140 172.652 138.946 175.196 137.071 177.071C135.196 178.946 132.652 180 130 180H30C27.3478 180 24.8043 178.946 22.9289 177.071C21.0536 175.196 20 172.652 20 170V100C20 97.3479 21.0536 94.8043 22.9289 92.929C24.8043 91.0536 27.3478 90 30 90H130C132.652 90 135.196 91.0536 137.071 92.929C138.946 94.8043 140 97.3479 140 100V170Z" fill="#C1C1C1"/>
</svg>
