<svg width="18" height="20" viewBox="0 0 18 20" fill="none" xmlns="http://www.w3.org/2000/svg">
<path d="M8.91237 12.5664C11.4791 12.5664 13.6894 13.0156 15.2847 14.0905C16.9371 15.2045 17.8247 16.921 17.8247 19.1616C17.8104 19.3882 17.7103 19.6009 17.5447 19.7563C17.3791 19.9117 17.1606 19.9982 16.9335 19.9982C16.7064 19.9982 16.4879 19.9117 16.3223 19.7563C16.1567 19.6009 16.0566 19.3882 16.0423 19.1616C16.0423 17.454 15.4041 16.3168 14.2901 15.5663C13.1172 14.7785 11.3187 14.3489 8.91237 14.3489C6.50603 14.3489 4.70573 14.7785 3.53465 15.5681C2.4206 16.3185 1.78247 17.4558 1.78247 19.1634C1.76813 19.39 1.668 19.6027 1.50243 19.7581C1.33687 19.9135 1.11832 20 0.891237 20C0.664156 20 0.445604 19.9135 0.280041 19.7581C0.114478 19.6027 0.0143404 19.39 0 19.1634C0 16.921 0.885889 15.2045 2.53824 14.0905C4.13356 13.0156 6.34561 12.5664 8.91237 12.5664ZM8.91237 0C10.377 0.0369084 11.7693 0.644663 12.7921 1.69362C13.815 2.74257 14.3875 4.14969 14.3875 5.61479C14.3875 7.0799 13.815 8.48701 12.7921 9.53596C11.7693 10.5849 10.377 11.1927 8.91237 11.2296C7.42323 11.2296 5.99509 10.638 4.94211 9.58505C3.88913 8.53207 3.29758 7.10393 3.29758 5.61479C3.29758 4.12566 3.88913 2.69751 4.94211 1.64453C5.99509 0.591556 7.42323 0 8.91237 0ZM8.91237 1.78247C7.91621 1.81286 6.97102 2.22994 6.27713 2.94532C5.58323 3.66071 5.19517 4.61817 5.19517 5.61479C5.19517 6.61142 5.58323 7.56888 6.27713 8.28426C6.97102 8.99964 7.91621 9.41672 8.91237 9.44711C9.92876 9.44711 10.9035 9.04335 11.6222 8.32465C12.3409 7.60595 12.7447 6.63119 12.7447 5.61479C12.7447 4.5984 12.3409 3.62363 11.6222 2.90493C10.9035 2.18623 9.92876 1.78247 8.91237 1.78247Z" fill="#E6E6E6"/>
</svg>
