<svg width="32" height="32" viewBox="0 0 32 32" fill="none" xmlns="http://www.w3.org/2000/svg">
<circle cx="16" cy="16" r="16" fill="url(#paint0_linear_541_6355)"/>
<path d="M15.8999 16.0284C15.6 15.1 14.6822 13.0916 14.6822 10.5685C14.6822 8.04538 15.2274 6 15.8999 6C16.5725 6 17.1177 8.04538 17.1177 10.5685C17.1177 13.0916 16.2 15.1 15.8999 16.0284Z" fill="#EDEDED"/>
<path d="M15.9716 15.9571C16.7516 15.5143 18.9084 14.7393 21.4315 14.7393C23.9546 14.7393 26 15.2845 26 15.9571C26 16.6296 23.9546 17.1748 21.4315 17.1748C18.9084 17.1748 16.5845 16.4552 15.9716 15.9571Z" fill="#EDEDED"/>
<path d="M15.9731 16.0302C16.8377 16.2686 18.9108 17.2458 20.6949 19.0299C22.479 20.814 23.5397 22.6458 23.0642 23.1214C22.5886 23.5969 20.7568 22.5361 18.9727 20.752C17.1886 18.9679 16.0542 16.8158 15.9731 16.0302Z" fill="#EDEDED"/>
<path d="M15.9009 16.0297C15.6625 16.8944 14.6854 18.9674 12.9013 20.7515C11.1172 22.5356 9.28535 23.5964 8.8098 23.1208C8.33424 22.6453 9.39503 20.8135 11.1791 19.0294C12.9632 17.2453 15.1153 16.1108 15.9009 16.0297Z" fill="#EDEDED"/>
<path d="M15.901 15.9581C15.0363 15.7196 12.9633 14.7425 11.1792 12.9584C9.39507 11.1743 8.33428 9.34248 8.80983 8.86692C9.28539 8.39137 11.1172 9.45216 12.9013 11.2363C14.6854 13.0204 15.8199 15.1725 15.901 15.9581Z" fill="#EDEDED"/>
<path d="M15.9731 15.9576C16.2115 15.093 17.1887 13.0199 18.9728 11.2358C20.7569 9.45171 22.5887 8.39092 23.0642 8.86647C23.5398 9.34203 22.479 11.1738 20.6949 12.9579C18.9108 14.742 16.7587 15.8765 15.9731 15.9576Z" fill="#EDEDED"/>
<circle cx="15.9001" cy="15.8136" r="0.644681" fill="#EDEDED"/>
<path d="M15.8999 16.0283C16.3427 16.8083 17.1176 18.9651 17.1176 21.4882C17.1176 24.0113 16.5724 26.0566 15.8999 26.0566C15.2273 26.0566 14.6821 24.0113 14.6821 21.4882C14.6821 18.9651 15.4017 16.6411 15.8999 16.0283Z" fill="#EDEDED"/>
<path d="M15.8282 15.957C15.0482 16.3998 12.8914 17.1747 10.3683 17.1747C7.84518 17.1747 5.7998 16.6295 5.7998 15.957C5.7998 15.2845 7.84518 14.7393 10.3683 14.7393C12.8914 14.7393 15.2153 15.4588 15.8282 15.957Z" fill="#EDEDED"/>
<defs>
<linearGradient id="paint0_linear_541_6355" x1="17.8" y1="9" x2="16" y2="32" gradientUnits="userSpaceOnUse">
<stop stop-color="#E5E5E5"/>
<stop offset="1" stop-color="#D9D9D9"/>
</linearGradient>
</defs>
</svg>
