<svg width="28" height="28" viewBox="0 0 28 28" fill="none" xmlns="http://www.w3.org/2000/svg">
<path d="M14.071 5.59961V17.5785M8.42238 12.526L13.0515 17.1551C13.3328 17.4364 13.7014 17.5775 14.0691 17.5775M19.7168 12.526L15.0877 17.1551C14.8064 17.4364 14.4377 17.5775 14.0701 17.5775M22.4 18.334V19.2316C22.4 19.6476 22.318 20.0596 22.1588 20.4439C21.9996 20.8283 21.7663 21.1775 21.4721 21.4717C21.1779 21.7659 20.8287 21.9993 20.4443 22.1585C20.06 22.3177 19.648 22.3996 19.232 22.3996H8.76798C8.35195 22.3996 7.93999 22.3177 7.55563 22.1585C7.17127 21.9993 6.82204 21.7659 6.52786 21.4717C6.23369 21.1775 6.00033 20.8283 5.84113 20.4439C5.68192 20.0596 5.59998 19.6476 5.59998 19.2316V18.334" stroke="#323232" stroke-width="1.44" stroke-linecap="round" stroke-linejoin="round"/>
</svg>
